#!OML:ASF Y:\EmotionMaleHayes\Project 1\Capture day 1\Session 1\Male1.ASF
:FULLY-SPECIFIED
:DEGREES
2262
root -0.521124 16.7622 18.2516 989.853 -78.8925 810.824
lowerback 5.86588 1.3236 -13.7225
upperback 9.51652 1.15423 -4.5485
thorax 6.73447 -0.425993 2.74248
lowerneck -17.1477 -1.53629 -0.660096
upperneck 25.1059 -5.0533 9.08444
head 11.2817 -1.41042 2.65543
rclavicle 8.94531e-015 6.83819e-014
rhumerus -22.6554 9.70084 -90.423
rradius 40.8633
rwrist -12.3149
rhand -12.0233 -33.7376
rfingers 7.12502
rthumb 14.0345 -63.2438
lclavicle 8.94531e-015 6.83819e-014
lhumerus 3.12342 -22.1373 85.6973
lradius 34.9683
lwrist 4.89037
lhand -21.0868 -26.5509
lfingers 7.12502
lthumb 5.29056 3.3631
rfemur -30.0054 -6.90006 9.89452
rtibia 40.5304
rfoot -13.0207 -4.51149
rtoes 18.2563
lfemur 5.50778 -3.01673 -35.5289
ltibia 17.0564
lfoot -18.6924 -0.559104
ltoes 0.819898
2263
root -0.644254 16.7483 18.2891 991.742 -78.6549 809.085
lowerback 5.79964 1.16759 -13.7146
upperback 9.46295 0.962515 -4.47098
thorax 6.7409 -0.516643 2.8241
lowerneck -16.8839 -1.63179 -0.543119
upperneck 24.527 -5.23842 9.39127
head 11.033 -1.46938 2.70816
rclavicle -4.96962e-015 -4.77083e-015
rhumerus -22.8411 9.2662 -90.5317
rradius 41.6752
rwrist -13.212
rhand -11.7328 -33.4992
rfingers 7.12502
rthumb 14.3145 -62.9857
lclavicle -4.96962e-015 -4.77083e-015
lhumerus 2.73048 -23.1412 86.1508
lradius 35.4884
lwrist 4.95894
lhand -20.8226 -26.6739
lfingers 7.12502
lthumb 5.54564 3.23356
rfemur -29.9467 -7.76468 9.59875
rtibia 37.4674
rfoot -11.8529 -4.50701
rtoes 19.5382
lfemur 5.97082 -2.98915 -36.0611
ltibia 16.8133
lfoot -18.6769 -0.71789
ltoes -0.203873
2264
root -0.766256 16.7284 18.3002 991.778 -78.8048 809.261
lowerback 5.75685 1.13035 -13.6995
upperback 9.27564 0.91683 -4.22609
thorax 6.55961 -0.520241 3.08475
lowerneck -16.8955 -1.67015 -0.345247
upperneck 24.377 -5.35238 9.44907
head 10.9854 -1.50026 2.67524
rclavicle 1.94809e-014 5.64548e-014
rhumerus -23.1911 9.0573 -90.6412
rradius 42.4224
rwrist -14.0207
rhand -11.4397 -33.1546
rfingers 7.12502
rthumb 14.5969 -62.621
lclavicle 1.94809e-014 5.64548e-014
lhumerus 2.27682 -24.3876 86.5115
lradius 35.9028
lwrist 5.18539
lhand -20.5708 -26.5946
lfingers 7.12502
lthumb 5.7887 3.3063
rfemur -30.0621 -7.41893 9.87906
rtibia 34.4722
rfoot -10.9634 -5.14521
rtoes 20.2859
lfemur 6.47313 -2.92374 -35.839
ltibia 16.3126
lfoot -18.692 -0.6512
ltoes -1.268
2265
root -0.893854 16.7076 18.315 991.85 -78.9271 809.325
lowerback 5.71709 1.02106 -13.6843
upperback 9.11352 0.775653 -3.99104
thorax 6.42147 -0.574803 3.3338
lowerneck -16.8655 -1.66329 -0.116287
upperneck 24.3306 -5.40293 9.42584
head 10.9604 -1.50883 2.61883
rclavicle -7.15625e-015 -1.27222e-014
rhumerus -23.461 9.15281 -90.8094
rradius 43.1475
rwrist -14.8022
rhand -10.8603 -33.3156
rfingers 7.12502
rthumb 15.1551 -62.7407
lclavicle -7.15625e-015 -1.27222e-014
lhumerus 1.74349 -25.5303 86.8002
lradius 36.3668
lwrist 5.30646
lhand -20.5075 -26.5359
lfingers 7.12502
lthumb 5.84981 3.36331
rfemur -29.9347 -7.1029 10.0632
rtibia 31.3412
rfoot -10.3418 -5.81764
rtoes 21.9469
lfemur 6.88385 -2.71143 -35.6422
ltibia 16.1154
lfoot -18.8945 -0.915
ltoes -0.687405
2266
root -1.02978 16.6861 18.3373 992.04 -78.8631 809.224
lowerback 5.53331 0.968251 -13.6267
upperback 9.15804 0.745925 -3.86223
thorax 6.57902 -0.598879 3.43928
lowerneck -16.9394 -1.7871 -0.490203
upperneck 24.1087 -5.6313 10.0639
head 10.9406 -1.57823 2.87776
rclavicle 1.76918e-014 3.1408e-014
rhumerus -23.4429 8.94898 -90.909
rradius 43.9207
rwrist -15.4618
rhand -10.2877 -33.3818
rfingers 7.12502
rthumb 15.7066 -62.7644
lclavicle 1.76918e-014 3.1408e-014
lhumerus 1.4115 -26.6125 87.0875
lradius 36.9562
lwrist 4.98491
lhand -20.3639 -26.7657
lfingers 7.12502
lthumb 5.98845 3.12968
rfemur -29.6104 -6.85307 9.92826
rtibia 27.8596
rfoot -9.39869 -6.33229
rtoes 23.6425
lfemur 7.50776 -2.46567 -35.7355
ltibia 15.7231
lfoot -18.9233 -1.19932
ltoes 0.332922
2267
root -1.16522 16.6663 18.3615 992.108 -78.4863 809.321
lowerback 5.2148 0.937309 -13.9113
upperback 9.20345 0.763512 -3.79853
thorax 6.81789 -0.626135 3.65942
lowerneck -17.296 -1.82665 -0.552401
upperneck 24.0995 -5.76068 10.352
head 11.0307 -1.59763 2.97447
rclavicle 3.18055e-015 9.14409e-015
rhumerus -23.5079 8.70565 -90.9777
rradius 44.747
rwrist -15.8654
rhand -9.82199 -33.104
rfingers 7.12502
rthumb 16.1551 -62.4507
lclavicle 3.18055e-015 9.14409e-015
lhumerus 1.09133 -27.5045 87.4021
lradius 37.5817
lwrist 4.05664
lhand -19.8522 -26.7748
lfingers 7.12502
lthumb 6.48252 3.10603
rfemur -29.4568 -6.70909 9.42326
rtibia 25.5392
rfoot -9.12373 -6.14069
rtoes 24.3998
lfemur 7.99673 -2.19863 -36.2054
ltibia 15.4331
lfoot -18.9733 -1.48364
ltoes 0.737302
2268
root -1.30843 16.648 18.3842 992.08 -77.9817 809.481
lowerback 4.88807 0.905055 -14.383
upperback 9.21313 0.778295 -3.75355
thorax 7.02874 -0.66446 3.96153
lowerneck -17.4809 -1.98132 -0.664762
upperneck 24.0002 -6.03593 10.6758
head 11.067 -1.69275 3.06906
rclavicle 1.03368e-014 3.97569e-014
rhumerus -23.6802 8.56323 -91.0804
rradius 45.5065
rwrist -16.2292
rhand -9.2969 -33.4047
rfingers 7.12502
rthumb 16.6606 -62.7097
lclavicle 1.03368e-014 3.97569e-014
lhumerus 0.708806 -28.5407 87.6775
lradius 38.2115
lwrist 3.50732
lhand -19.2217 -26.4041
lfingers 7.12502
lthumb 7.09114 3.45712
rfemur -29.1713 -6.5601 8.70771
rtibia 22.7541
rfoot -8.76473 -5.89343
rtoes 24.4027
lfemur 8.59254 -1.9516 -36.836
ltibia 15.0802
lfoot -19.0945 -1.78183
ltoes 1.12443
2269
root -1.43164 16.614 18.3993 995.289 -77.6949 806.677
lowerback 4.72631 0.62608 -14.5986
upperback 9.0257 0.434356 -3.62379
thorax 6.98249 -0.833061 4.21913
lowerneck -17.432 -1.94681 -0.448777
upperneck 23.7773 -6.03196 10.7128
head 10.9711 -1.67599 3.04057
rclavicle 3.67752e-015 2.78299e-014
rhumerus -23.8944 8.64128 -91.2111
rradius 46.0949
rwrist -16.969
rhand -8.88434 -34.0105
rfingers 7.12502
rthumb 17.0578 -63.2817
lclavicle 3.67752e-015 2.78299e-014
lhumerus 0.0332498 -30.0963 88.008
lradius 38.8397
lwrist 4.73045
lhand -19.3343 -26.774
lfingers 7.12502
lthumb 6.98249 3.09083
rfemur -29.1878 -6.69511 8.13024
rtibia 19.9021
rfoot -8.91193 -6.03451
rtoes 24.4615
lfemur 8.67251 -2.10018 -37.1172
ltibia 15.156
lfoot -19.3089 -2.40139
ltoes 1.62591
2270
root -1.56056 16.5825 18.4192 997.245 -77.4303 804.96
lowerback 4.72682 0.455027 -14.7088
upperback 8.8443 0.200355 -3.497
thorax 6.82789 -0.935276 4.41815
lowerneck -17.3216 -1.99123 -0.369461
upperneck 23.5148 -6.09137 10.7569
head 10.8563 -1.70257 3.02811
rclavicle -9.34288e-015 -4.59193e-014
rhumerus -24.18 8.80562 -91.2918
rradius 46.618
rwrist -17.8359
rhand -8.61525 -34.1559
rfingers 7.12502
rthumb 17.3168 -63.4044
lclavicle -9.34288e-015 -4.59193e-014
lhumerus -0.70045 -30.3965 88.5572
lradius 39.2972
lwrist 2.09714
lhand -18.1998 -26.6817
lfingers 7.12502
lthumb 8.07751 3.14389
rfemur -29.1465 -6.71869 7.61996
rtibia 17.4763
rfoot -9.21431 -5.80914
rtoes 23.3406
lfemur 8.96832 -2.08512 -37.3868
ltibia 15.1612
lfoot -19.6609 -2.66681
ltoes 0.74271
